<mxfile host="Electron" modified="2024-04-26T13:50:25.831Z" agent="Mozilla/5.0 (X11; Linux x86_64) AppleWebKit/537.36 (KHTML, like Gecko) draw.io/24.2.5 Chrome/120.0.6099.109 Electron/28.1.0 Safari/537.36" etag="ABEITqfL99-bg0P_FrdC" version="24.2.5" type="device">
  <diagram name="Page-1" id="Nl3nQUvoHlesdhIL3ydi">
    <mxGraphModel dx="1434" dy="835" grid="1" gridSize="10" guides="1" tooltips="1" connect="1" arrows="1" fold="1" page="1" pageScale="1" pageWidth="850" pageHeight="1100" math="0" shadow="0">
      <root>
        <mxCell id="0" />
        <mxCell id="1" parent="0" />
        <mxCell id="Hjux2uunRtQqyWCUd4-h-7" style="edgeStyle=orthogonalEdgeStyle;rounded=1;orthogonalLoop=1;jettySize=auto;html=1;shadow=0;strokeColor=#6c8ebf;strokeWidth=1;fontFamily=Ubuntu;fontSize=14;fontStyle=0;endArrow=block;endFill=1;fillColor=#dae8fc;" edge="1" parent="1" source="Hjux2uunRtQqyWCUd4-h-2" target="Hjux2uunRtQqyWCUd4-h-3">
          <mxGeometry relative="1" as="geometry" />
        </mxCell>
        <mxCell id="Hjux2uunRtQqyWCUd4-h-2" value="n = 3^x" style="rounded=1;whiteSpace=wrap;html=1;shadow=0;strokeColor=#6c8ebf;strokeWidth=1;fontFamily=Ubuntu;fontSize=16;fontStyle=0;fillColor=#dae8fc;" vertex="1" parent="1">
          <mxGeometry x="280" y="220" width="100" height="40" as="geometry" />
        </mxCell>
        <mxCell id="Hjux2uunRtQqyWCUd4-h-6" style="edgeStyle=orthogonalEdgeStyle;rounded=1;orthogonalLoop=1;jettySize=auto;html=1;shadow=0;strokeColor=#6c8ebf;strokeWidth=1;fontFamily=Ubuntu;fontSize=14;fontStyle=0;endArrow=block;endFill=1;fillColor=#dae8fc;" edge="1" parent="1" source="Hjux2uunRtQqyWCUd4-h-3" target="Hjux2uunRtQqyWCUd4-h-4">
          <mxGeometry relative="1" as="geometry" />
        </mxCell>
        <mxCell id="Hjux2uunRtQqyWCUd4-h-3" value="log3(n) = x" style="rounded=1;whiteSpace=wrap;html=1;shadow=0;strokeColor=#6c8ebf;strokeWidth=1;fontFamily=Ubuntu;fontSize=16;fontStyle=0;fillColor=#dae8fc;" vertex="1" parent="1">
          <mxGeometry x="280" y="310" width="100" height="40" as="geometry" />
        </mxCell>
        <mxCell id="Hjux2uunRtQqyWCUd4-h-8" style="edgeStyle=orthogonalEdgeStyle;rounded=1;orthogonalLoop=1;jettySize=auto;html=1;entryX=0.5;entryY=0;entryDx=0;entryDy=0;shadow=0;strokeColor=#6c8ebf;strokeWidth=1;fontFamily=Ubuntu;fontSize=14;fontStyle=0;endArrow=block;endFill=1;fillColor=#dae8fc;" edge="1" parent="1" source="Hjux2uunRtQqyWCUd4-h-4" target="Hjux2uunRtQqyWCUd4-h-5">
          <mxGeometry relative="1" as="geometry" />
        </mxCell>
        <mxCell id="Hjux2uunRtQqyWCUd4-h-4" value="3 ^ log3(n) = 3^x = n" style="rounded=1;whiteSpace=wrap;html=1;shadow=0;strokeColor=#6c8ebf;strokeWidth=1;fontFamily=Ubuntu;fontSize=16;fontStyle=0;fillColor=#dae8fc;" vertex="1" parent="1">
          <mxGeometry x="245" y="400" width="170" height="40" as="geometry" />
        </mxCell>
        <mxCell id="Hjux2uunRtQqyWCUd4-h-5" value="3 ^ log3(n) = n" style="rounded=1;whiteSpace=wrap;html=1;shadow=0;strokeColor=#82b366;strokeWidth=1;fontFamily=Ubuntu;fontSize=16;fontStyle=0;fillColor=#d5e8d4;" vertex="1" parent="1">
          <mxGeometry x="245" y="490" width="170" height="40" as="geometry" />
        </mxCell>
      </root>
    </mxGraphModel>
  </diagram>
</mxfile>
